# xmcd
#
# Track frame offsets: 
#        150
#        9474
#        22491
#        37739
#        50851
#        62673
#        71852
#        83174
#        99427
#        112782
#
# Disc length: 1651 seconds
#
# Revision: 4
# Processed by: cddbd v1.5.1PL0 Copyright (c) Steve Scherf et al.
# Submitted via: ExactAudioCopy v0.95a4
#
DISCID=8006710a
DTITLE=Various Artist - The 101 Greatest Country Hits - Vol. 2 -  Country Sun
DTITLE=shine
DYEAR=1997
DGENRE=Country
TTITLE0=Country Sunshine - Dottie West
TTITLE1=Misty - Ray Stevens
TTITLE2=(Hey Won't You Play) Another Somebody Done Somebody Wrong Song
TTITLE2=B.J. Thomas
TTITLE3=Delta Dawn - Tanya Tucker
TTITLE4=All The Gold In California - Gatlin Brothers
TTITLE5=Kiss An Angel Good Morning - Charlie Pride
TTITLE6=Heaven's Just A Sin Away - The Kendalls
TTITLE7=I Loved 'Em Every One - T.G. Sheppard
TTITLE8=Don't All The Girls Get Prettier At Closing Time - Mickey Gill
TTITLE8=ey
TTITLE9=Louisiana Woman, Mississippi Man - Conway Twitty and Loretta Lyn
TTITLE9=n
EXTD=
EXTT0=
EXTT1=
EXTT2=
EXTT3=
EXTT4=
EXTT5=
EXTT6=
EXTT7=
EXTT8=
EXTT9=
PLAYORDER=
